<svg viewBox="0 0 512 512">
  <g id="Map"><path d="M462.4267,175.8809a120.5879,120.5879,0,0,1-6.6751,11.3647l-56.833,79.5718a51.3893,51.3893,0,0,1-41.748,21.477,50.7351,50.7351,0,0,1-14.8519-2.4747V450.3488l98.7643,31.0257a16.8769,16.8769,0,0,0,4.917.7236A17.0929,17.0929,0,0,0,463.0981,465V180A16.8392,16.8392,0,0,0,462.4267,175.8809Z"/><path d="M239.9919,147.6777l-35.9265,9.89V478.0208L308.119,449.3816V256.5845l-49.5271-69.33A121.5093,121.5093,0,0,1,239.9919,147.6777Z"/><path d="M55.7949,128.2788A17.0879,17.0879,0,0,0,48.9019,142V427A17.09,17.09,0,0,0,61.083,443.3745L169.8645,477.543V156.7092L70.917,125.6255A17.0653,17.0653,0,0,0,55.7949,128.2788Z"/><path d="M343.25,246.936a17.1006,17.1006,0,0,0,27.8321,0l56.833-79.5625a86.9389,86.9389,0,1,0-141.4981,0ZM357.166,88.3445a28.5,28.5,0,1,1-28.5,28.5A28.4992,28.4992,0,0,1,357.166,88.3445Z"/></g></svg>